# xmcd
#
# Track frame offsets: 
#        182
#        18435
#        36435
#        60510
#        84025
#        101245
#        120500
#        133060
#        148205
#        164950
#        178467
#        190372
#        216652
#
# Disc length: 3078 seconds
#
# Revision: 2
# Processed by: cddbd v1.5.2PL0 Copyright (c) Steve Scherf et al.
# Submitted via: ExactAudioCopy v0.99pb4
#
DISCID=ce0c040d
DTITLE=Various Artist - Hear The Light Vol. 2
DYEAR=1984
DGENRE=Pop
TTITLE0=Michael Sembello - Maniac
TTITLE1=Visage - Fade To Grey
TTITLE2=John Williams - Star Wars (Main Theme)
TTITLE3=Irene Cara - Fame
TTITLE4=Eric Clapton - Lay Down Sally
TTITLE5=Kool And The Gang - Joanna
TTITLE6=Statler Brothers - Atlanta Blue
TTITLE7=Mantovani - Greensleeves
TTITLE8=John Williams And The Boston Pops - E.T. Flying Theme
TTITLE9=Zamfir - Theme From Missing
TTITLE10=Wes Montgomery - Caravan
TTITLE11=Stan Getz And Astrud Gilberto - Desafinado
TTITLE12=Tom Jones - Darlin'
EXTD=
EXTT0=
EXTT1=
EXTT2=
EXTT3=
EXTT4=
EXTT5=
EXTT6=
EXTT7=
EXTT8=
EXTT9=
EXTT10=
EXTT11=
EXTT12=
PLAYORDER=
